<?xml version="1.0" standalone="no"?>
<!DOCTYPE svg PUBLIC "-//W3C//DTD SVG 20010904//EN"
 "http://www.w3.org/TR/2001/REC-SVG-20010904/DTD/svg10.dtd">
<svg version="1.0" xmlns="http://www.w3.org/2000/svg"
 width="512.000000pt" height="512.000000pt" viewBox="0 0 512.000000 512.000000"
 preserveAspectRatio="xMidYMid meet">
<metadata>
Created by potrace 1.11, written by Peter Selinger 2001-2013
</metadata>
<g transform="translate(0.000000,512.000000) scale(0.100000,-0.100000)"
fill="#000000" stroke="none">
<path d="M400 5114 c0 -3 173 -179 384 -392 211 -213 488 -493 616 -622 128
-129 403 -407 611 -617 l379 -383 -42 -62 c-35 -51 -118 -169 -242 -343 -25
-35 -217 -306 -322 -455 -57 -80 -112 -158 -124 -175 -12 -16 -49 -69 -83
-117 -34 -47 -69 -96 -77 -108 -8 -12 -32 -45 -52 -73 -20 -29 -47 -65 -58
-82 -12 -16 -79 -111 -149 -210 -137 -194 -307 -435 -353 -500 -15 -22 -61
-87 -102 -145 -41 -58 -85 -120 -98 -138 -13 -17 -29 -40 -36 -50 -7 -9 -112
-156 -232 -327 l-220 -310 702 -3 c554 -2 705 1 714 10 6 7 189 278 405 603
217 324 398 594 402 600 4 5 162 240 350 521 188 280 351 522 362 537 l20 27
320 -325 320 -326 2 -812 c1 -447 2 -818 2 -825 1 -10 117 -12 563 -10 l561 3
0 2545 c-1 1400 -2 2551 -2 2558 -1 18 -1121 18 -1122 0 0 -7 -1 -485 -1
-1062 l-1 -1049 -65 69 c-134 143 -319 340 -375 398 -50 52 -138 145 -310 330
-22 23 -71 75 -110 116 -60 63 -241 255 -372 395 -16 18 -100 106 -185 196
-85 90 -186 197 -225 238 -38 41 -83 89 -100 106 -16 17 -81 86 -144 153
l-114 122 -698 0 c-385 0 -699 -3 -699 -6z"/>
</g>
</svg>
